<svg xmlns="http://www.w3.org/2000/svg" viewBox="0 0 260 150"><defs><linearGradient id="g" x1="0" y1="0" x2="0" y2="1"><stop stop-color="#f5fbff"/><stop offset=".58" stop-color="#bfe7f2"/><stop offset="1" stop-color="#96d0df"/></linearGradient><linearGradient id="b" x1="0" y1="0" x2="1" y2="1"><stop stop-color="#fff"/><stop offset=".45" stop-color="#d5e8ef"/><stop offset="1" stop-color="#62899c"/></linearGradient><linearGradient id="gold" x1="0" y1="0" x2="1" y2="1"><stop stop-color="#fff1a8"/><stop offset=".4" stop-color="#f7c948"/><stop offset="1" stop-color="#b77906"/></linearGradient><filter id="s"><feDropShadow dx="0" dy="9" stdDeviation="7" flood-opacity=".24"/></filter></defs><rect width="260" height="150" rx="18" fill="url(#g)"/><circle cx="205" cy="29" r="17" fill="#fff5b4" opacity=".82"/><ellipse cx="130" cy="132" rx="98" ry="11" fill="#315c66" opacity=".16"/><g filter="url(#s)"><path d="M61 121V66l34-15 31 15v55z" fill="url(#b)"/><path d="M134 121V62l34-15 31 16v58z" fill="url(#b)"/><path d="M94 121V34l36-17 36 17v87z" fill="url(#b)"/><path d="M122 17l8-12 8 12z" fill="url(#gold)"/><rect x="126" y="5" width="8" height="16" rx="3" fill="url(#gold)"/><g fill="#4eb5d7"><rect x="73" y="76" width="10" height="9"/><rect x="101" y="52" width="11" height="9"/><rect x="124" y="43" width="11" height="9"/><rect x="147" y="52" width="11" height="9"/><rect x="150" y="76" width="10" height="9"/><rect x="176" y="72" width="10" height="9"/></g><path d="M53 121h154" stroke="url(#gold)" stroke-width="5"/></g></svg>