<svg xmlns="http://www.w3.org/2000/svg" viewBox="0 0 260 150"><defs><linearGradient id="g" x1="0" y1="0" x2="0" y2="1"><stop stop-color="#ebfaff"/><stop offset="1" stop-color="#a4dded"/></linearGradient><linearGradient id="b" x1="0" y1="0" x2="1" y2="1"><stop stop-color="#f8fbfd"/><stop offset=".55" stop-color="#b9d1dc"/><stop offset="1" stop-color="#648697"/></linearGradient><filter id="s"><feDropShadow dx="0" dy="8" stdDeviation="6" flood-opacity=".22"/></filter></defs><rect width="260" height="150" rx="18" fill="url(#g)"/><ellipse cx="130" cy="132" rx="94" ry="11" fill="#315c66" opacity=".14"/><g filter="url(#s)"><path d="M76 119V54l53-21 51 22v64z" fill="url(#b)"/><path d="M129 33l51 22 20-10-51-23z" fill="#eef6fa"/><path d="M102 117V31l28-13 27 13v86z" fill="url(#b)"/><g fill="#56b8da"><rect x="88" y="67" width="11" height="9"/><rect x="108" y="59" width="11" height="9"/><rect x="139" y="58" width="11" height="9"/><rect x="159" y="67" width="11" height="9"/><rect x="112" y="40" width="10" height="8"/><rect x="137" y="40" width="10" height="8"/></g></g></svg>