<svg xmlns="http://www.w3.org/2000/svg" viewBox="0 0 80 104"><ellipse cx="40" cy="98" rx="24" ry="5" fill="#0c1b27" opacity=".25"/><path d="M20 92V58q0-12 20-12t20 12v34z" fill="#187b67" stroke="#113d35" stroke-width="3"/><rect x="31" y="88" width="8" height="9" rx="3" fill="#113d35"/><rect x="43" y="88" width="8" height="9" rx="3" fill="#113d35"/><path d="M19 58q-9 2-9 14v10q1 6 8 4l7-6" fill="#187b67" stroke="#113d35" stroke-width="3"/><path d="M61 58q9 2 9 14v10q-1 6-8 4l-7-6" fill="#187b67" stroke="#113d35" stroke-width="3"/><ellipse cx="40" cy="30" rx="18" ry="22" fill="#f4ca9b" stroke="#113d35" stroke-width="2"/><circle cx="34" cy="31" r="2.5" fill="#172b35"/><circle cx="47" cy="31" r="2.5" fill="#172b35"/><path d="M36 40q4 3 8 0" stroke="#8c5645" stroke-width="2" fill="none" stroke-linecap="round"/><path d='M24 17h32l-3 10H27z' fill='#172e36'/><path d='M29 11h22l5 9H24z' fill='#1e3e44'/><path d='M34 45l6 9 6-9' fill='#f5c94c'/><path d='M38 54h4l3 19h-10z' fill='#f5c94c'/><path d="M27 76h26" stroke="#fff" stroke-opacity=".17" stroke-width="2"/></svg>