<svg xmlns="http://www.w3.org/2000/svg" viewBox="0 0 80 104"><ellipse cx="40" cy="98" rx="24" ry="5" fill="#0c1b27" opacity=".25"/><path d="M20 92V58q0-12 20-12t20 12v34z" fill="#41b6c4" stroke="#1b5c6b" stroke-width="3"/><rect x="31" y="88" width="8" height="9" rx="3" fill="#1b5c6b"/><rect x="43" y="88" width="8" height="9" rx="3" fill="#1b5c6b"/><path d="M19 58q-9 2-9 14v10q1 6 8 4l7-6" fill="#41b6c4" stroke="#1b5c6b" stroke-width="3"/><path d="M61 58q9 2 9 14v10q-1 6-8 4l-7-6" fill="#41b6c4" stroke="#1b5c6b" stroke-width="3"/><ellipse cx="40" cy="30" rx="18" ry="22" fill="#bd855e" stroke="#1b5c6b" stroke-width="2"/><circle cx="34" cy="31" r="2.5" fill="#172b35"/><circle cx="47" cy="31" r="2.5" fill="#172b35"/><path d="M36 40q4 3 8 0" stroke="#8c5645" stroke-width="2" fill="none" stroke-linecap="round"/><path d='M20 24q1-20 20-20t20 20l-8-7-7 3-9-9-7 10z' fill='#222a34'/><path d='M25 30h30' stroke='#242936' stroke-width='5'/><rect x='27' y='27' width='11' height='8' rx='3' fill='#111'/><rect x='42' y='27' width='11' height='8' rx='3' fill='#111'/><path d='M25 57l30 12' stroke='#d5fffa' stroke-width='5'/><path d="M27 76h26" stroke="#fff" stroke-opacity=".17" stroke-width="2"/></svg>