<svg xmlns="http://www.w3.org/2000/svg" viewBox="0 0 220 150"><defs><filter id="s"><feDropShadow dx="6" dy="8" stdDeviation="4" flood-opacity=".35"/></filter></defs><g filter="url(#s)"><ellipse cx="110" cy="126" rx="90" ry="14" fill="#071525" opacity=".28"/><path d="M23 100c20-34 51-50 88-49 41 1 67 18 86 50-31 31-144 33-174-1z" fill="#18b9dc"/><path d="M38 92c19-28 44-40 76-39 31 1 52 12 69 37-34 17-111 20-145 2z" fill="#f1d27b"/><path d="M119 47v55" stroke="#7c4a21" stroke-width="7"/><path d="m119 48-44 17c7-25 24-38 44-39z" fill="#ef4444"/><path d="m119 48 43 17c-7-25-23-38-43-39z" fill="#fff4e6"/><path d="M62 74v33" stroke="#7c4a21" stroke-width="5"/><path d="M62 73c-18-7-25-16-26-27 14 1 23 7 28 18 4-13 14-20 29-21-2 13-12 23-31 30z" fill="#22a447"/><circle cx="159" cy="94" r="9" fill="#f97316"/></g></svg>