<svg xmlns="http://www.w3.org/2000/svg" viewBox="0 0 180 160"><g><ellipse cx="90" cy="142" rx="68" ry="12" fill="#071525" opacity=".35"/><path d="M40 58 90 31l51 28-51 29z" fill="#e6c89b"/><path d="M45 58v70l45 25V83z" fill="#f4e1bc"/><path d="M90 83v70l45-25V58z" fill="#d8bb8d"/><path d="m38 57 52-35 53 35-53 31z" fill="#c64d35"/><path d="m47 56 43-27 44 27-44 26z" fill="#e86a49"/><g fill="#4da3c7"><rect x="58" y="76" width="12" height="14"/><rect x="58" y="101" width="12" height="14"/><rect x="78" y="87" width="12" height="14"/></g><g fill="#3d8cab"><rect x="107" y="75" width="12" height="14"/><rect x="107" y="101" width="12" height="14"/></g><rect x="79" y="123" width="15" height="29" fill="#7c4a2b"/><circle cx="38" cy="126" r="14" fill="#4a9b50"/><circle cx="143" cy="125" r="15" fill="#3c8545"/></g></svg>