<svg xmlns="http://www.w3.org/2000/svg" viewBox="0 0 220 110">
<defs><linearGradient id="a" x1="0" y1="0" x2="1" y2="1"><stop stop-color="#fff"/><stop offset=".48" stop-color="#c7e2ee"/><stop offset="1" stop-color="#638da2"/></linearGradient><linearGradient id="b" x1="0" y1="0" x2="1" y2="0"><stop stop-color="#94b0c0"/><stop offset=".48" stop-color="#fbfdfe"/><stop offset="1" stop-color="#587e93"/></linearGradient><filter id="s"><feDropShadow dx="0" dy="6" stdDeviation="5" flood-color="#20343f" flood-opacity=".32"/></filter></defs>
<ellipse cx="110" cy="95" rx="87" ry="11" fill="#20323a" opacity=".2"/>
<g filter="url(#s)"><path d="M30 89 V50 L60 38 L84 48 V89Z" fill="url(#a)"/><path d="M72 89 V27 L109 12 L137 27 V89Z" fill="url(#b)"/><path d="M127 89 V42 L160 29 L190 43 V89Z" fill="url(#a)"/><path d="M109 12 L137 27 L151 20 L123 5Z" fill="#f5fbfd"/><path d="M160 29 L190 43 L202 36 L173 22Z" fill="#f1f8fb"/>
<g fill="#5eb4d5"><rect x="40" y="56" width="8" height="8"/><rect x="54" y="51" width="8" height="8"/><rect x="91" y="38" width="8" height="8"/><rect x="108" y="31" width="8" height="8"/><rect x="124" y="38" width="8" height="8"/><rect x="91" y="54" width="8" height="8"/><rect x="108" y="47" width="8" height="8"/><rect x="124" y="54" width="8" height="8"/><rect x="142" y="51" width="8" height="8"/><rect x="159" y="44" width="8" height="8"/><rect x="176" y="51" width="8" height="8"/></g></g>
</svg>